<svg xmlns="http://www.w3.org/2000/svg" viewBox="0 0 118.84 33.5"><defs><style>.cls-1{fill:#fff;}</style></defs><title>Asset 5</title><g id="Layer_2" data-name="Layer 2"><g id="Layer_1-2" data-name="Layer 1"><rect class="cls-1" x="-1.87" y="18.92" width="14.48" height="2.61" rx="1.28" ry="1.28" transform="translate(-13.05 10.31) rotate(-46.84)"/><rect class="cls-1" x="6.29" y="26.55" width="14.48" height="2.61" rx="1.28" ry="1.28" transform="translate(-16.04 18.67) rotate(-46.84)"/><rect class="cls-1" x="4.14" y="21.16" width="12.85" height="3.11" rx="1.53" ry="1.53" transform="translate(-13.23 14.89) rotate(-46.84)"/><path class="cls-1" d="M28.94.1,1.67,8.89a2.11,2.11,0,0,0-.82,3.53l7.16,7,2.72-2.9a.72.72,0,0,1,1,0l.86.8a.72.72,0,0,1,0,1L9.88,21.2l2.22,2.16,2.58-2.76a.72.72,0,0,1,1,0l1,.94a.72.72,0,0,1,0,1l-2.62,2.79,7.28,7.07a2.11,2.11,0,0,0,3.53-1L31.65,2.6A2.11,2.11,0,0,0,28.94.1ZM21.5,13.75l.8-3.06,2.62-3.2L21.46,4.59l2.75-.13,3.36,3.37Z"/><path class="cls-1" d="M47.68,20.58a3.61,3.61,0,0,1-.57,2A3.81,3.81,0,0,1,45.43,24a6.29,6.29,0,0,1-2.62.5,5.9,5.9,0,0,1-3-.69,4,4,0,0,1-1.36-1.32,3,3,0,0,1-.52-1.6A1.09,1.09,0,0,1,39,19.77a1,1,0,0,1,.67.25,2,2,0,0,1,.46.75,5,5,0,0,0,.51,1,2.06,2.06,0,0,0,.77.65,2.84,2.84,0,0,0,1.3.25,2.93,2.93,0,0,0,1.8-.51,1.55,1.55,0,0,0,.69-1.29,1.36,1.36,0,0,0-.37-1,2.41,2.41,0,0,0-1-.58q-.59-.2-1.58-.43a11.62,11.62,0,0,1-2.22-.72A3.58,3.58,0,0,1,38.68,17a2.94,2.94,0,0,1-.52-1.78,3.06,3.06,0,0,1,.55-1.8,3.49,3.49,0,0,1,1.6-1.21,6.55,6.55,0,0,1,2.46-.42,6.08,6.08,0,0,1,2,.28,4.15,4.15,0,0,1,1.37.75,3.12,3.12,0,0,1,.8,1,2.25,2.25,0,0,1,.25,1,1.18,1.18,0,0,1-.31.8,1,1,0,0,1-.78.36.9.9,0,0,1-.65-.21,2.88,2.88,0,0,1-.48-.7,3.19,3.19,0,0,0-.8-1.08,2.36,2.36,0,0,0-1.51-.39,2.61,2.61,0,0,0-1.55.42,1.23,1.23,0,0,0-.59,1,1,1,0,0,0,.2.64,1.7,1.7,0,0,0,.55.46,3.8,3.8,0,0,0,.71.3l1.19.32a18.27,18.27,0,0,1,1.88.54,5.72,5.72,0,0,1,1.43.71A2.94,2.94,0,0,1,47.35,19,3.4,3.4,0,0,1,47.68,20.58Z"/><path class="cls-1" d="M55.41,23.19a7.07,7.07,0,0,1-1.6,1,4.49,4.49,0,0,1-1.74.32,3.29,3.29,0,0,1-1.55-.35,2.53,2.53,0,0,1-1-.94,2.44,2.44,0,0,1-.36-1.29,2.31,2.31,0,0,1,.59-1.6,3,3,0,0,1,1.63-.89l1.08-.23,1.48-.32q.62-.15,1.34-.36a2.39,2.39,0,0,0-.36-1.33,1.63,1.63,0,0,0-1.34-.42,2.78,2.78,0,0,0-1.31.24,2.13,2.13,0,0,0-.75.73q-.31.48-.44.64a.73.73,0,0,1-.56.15,1,1,0,0,1-.67-.25.81.81,0,0,1-.28-.63A1.94,1.94,0,0,1,50,16.47a3.06,3.06,0,0,1,1.33-.94,6,6,0,0,1,2.25-.37,6.38,6.38,0,0,1,2.37.36,2.21,2.21,0,0,1,1.22,1.13,4.93,4.93,0,0,1,.36,2q0,.8,0,1.37t0,1.25a4.59,4.59,0,0,0,.21,1.34,4.22,4.22,0,0,1,.21.9.85.85,0,0,1-.33.64,1.11,1.11,0,0,1-.75.29,1,1,0,0,1-.7-.33A4.9,4.9,0,0,1,55.41,23.19Zm-.15-3.31a11.45,11.45,0,0,1-1.46.39l-1.33.3a1.79,1.79,0,0,0-.7.38,1,1,0,0,0-.33.78,1.16,1.16,0,0,0,.39.88,1.46,1.46,0,0,0,1,.36,2.68,2.68,0,0,0,1.25-.3,2,2,0,0,0,.84-.77,3.51,3.51,0,0,0,.31-1.71Z"/><path class="cls-1" d="M68,16.85V23.5a7,7,0,0,1-.24,2A3.14,3.14,0,0,1,67,26.82a3.27,3.27,0,0,1-1.4.8,7.65,7.65,0,0,1-2.16.26,6.27,6.27,0,0,1-2.11-.33,3.65,3.65,0,0,1-1.43-.85,1.56,1.56,0,0,1-.5-1.08.89.89,0,0,1,.28-.68,1,1,0,0,1,.69-.26,1.13,1.13,0,0,1,.88.44l.38.46a2.21,2.21,0,0,0,.44.39,1.71,1.71,0,0,0,.57.24,3.32,3.32,0,0,0,.77.08A3.13,3.13,0,0,0,64.77,26a1.41,1.41,0,0,0,.69-.69,2.79,2.79,0,0,0,.23-1q0-.51,0-1.63a3.75,3.75,0,0,1-1.22,1.12,3.32,3.32,0,0,1-1.65.39,3.47,3.47,0,0,1-2-.59A3.76,3.76,0,0,1,59.55,22a6,6,0,0,1-.46-2.44,5.77,5.77,0,0,1,.28-1.86,3.89,3.89,0,0,1,.8-1.4,3.42,3.42,0,0,1,1.2-.86,3.77,3.77,0,0,1,1.49-.29,3.59,3.59,0,0,1,1.68.37,4.1,4.1,0,0,1,1.32,1.17v-.31a1.33,1.33,0,0,1,.29-.92,1,1,0,0,1,.75-.33.89.89,0,0,1,.88.43A2.83,2.83,0,0,1,68,16.85Zm-6.63,2.9a3.16,3.16,0,0,0,.61,2.1,2,2,0,0,0,1.57.71,2.06,2.06,0,0,0,1.08-.31,2.25,2.25,0,0,0,.83-.92,3.22,3.22,0,0,0,.32-1.5,3.43,3.43,0,0,0-.62-2.18,2,2,0,0,0-1.62-.78,1.91,1.91,0,0,0-1.57.75A3.34,3.34,0,0,0,61.39,19.75Z"/><path class="cls-1" d="M76.28,20.39H71.81a3,3,0,0,0,.31,1.37A2.1,2.1,0,0,0,74.05,23a2.73,2.73,0,0,0,.75-.1,2.43,2.43,0,0,0,.66-.3,5,5,0,0,0,.59-.44l.7-.64a.75.75,0,0,1,.5-.15.83.83,0,0,1,.57.19.69.69,0,0,1,.22.54,1.49,1.49,0,0,1-.24.73,2.88,2.88,0,0,1-.73.79,4.15,4.15,0,0,1-1.23.63,5.29,5.29,0,0,1-1.71.25,4.56,4.56,0,0,1-3.43-1.26,4.68,4.68,0,0,1-1.22-3.41,5.68,5.68,0,0,1,.3-1.88,4.13,4.13,0,0,1,.88-1.49,3.8,3.8,0,0,1,1.42-1A5.11,5.11,0,0,1,74,15.16a4.45,4.45,0,0,1,2.3.57,3.72,3.72,0,0,1,1.44,1.46A3.85,3.85,0,0,1,78.17,19c0,.58-.16.95-.49,1.12A3.09,3.09,0,0,1,76.28,20.39Zm-4.47-1.3H76a2.79,2.79,0,0,0-.63-1.76,1.9,1.9,0,0,0-1.45-.58,1.83,1.83,0,0,0-1.4.59A2.94,2.94,0,0,0,71.81,19.09Z"/><path class="cls-1" d="M82.69,13.29v8.94h5a1.33,1.33,0,0,1,.93.29,1,1,0,0,1,.32.74.93.93,0,0,1-.32.73,1.37,1.37,0,0,1-.93.28h-6a1.3,1.3,0,0,1-1.52-1.52V13.29a1.65,1.65,0,0,1,.34-1.13,1.14,1.14,0,0,1,.89-.38,1.19,1.19,0,0,1,.91.37A1.62,1.62,0,0,1,82.69,13.29Z"/><path class="cls-1" d="M99,19.83a5.42,5.42,0,0,1-.32,1.88,4.17,4.17,0,0,1-.92,1.48,4.08,4.08,0,0,1-1.44,1,5.11,5.11,0,0,1-1.88.33,5,5,0,0,1-1.87-.33,4.12,4.12,0,0,1-2.36-2.43,5.37,5.37,0,0,1-.31-1.88,5.46,5.46,0,0,1,.32-1.9,4.14,4.14,0,0,1,.91-1.47,4,4,0,0,1,1.44-.94,5.45,5.45,0,0,1,3.75,0,4.11,4.11,0,0,1,1.45,1,4.16,4.16,0,0,1,.92,1.47A5.44,5.44,0,0,1,99,19.83Zm-2.3,0a3.44,3.44,0,0,0-.62-2.18,2,2,0,0,0-1.66-.78,2.05,2.05,0,0,0-1.18.35,2.2,2.2,0,0,0-.79,1,4.19,4.19,0,0,0-.28,1.58,4.14,4.14,0,0,0,.27,1.57,2.25,2.25,0,0,0,.78,1A2.15,2.15,0,0,0,96.11,22,3.42,3.42,0,0,0,96.72,19.83Z"/><path class="cls-1" d="M107.08,23.17v-.23a5.8,5.8,0,0,1-.91.86,3.43,3.43,0,0,1-1,.5,3.66,3.66,0,0,1-1.14.17,3.36,3.36,0,0,1-1.52-.35,3.55,3.55,0,0,1-1.21-1,4.52,4.52,0,0,1-.78-1.52,6.47,6.47,0,0,1-.26-1.88,4.91,4.91,0,0,1,1-3.34,3.48,3.48,0,0,1,2.76-1.2,3.7,3.7,0,0,1,1.67.34,4.62,4.62,0,0,1,1.32,1V13.2a1.71,1.71,0,0,1,.28-1.06,1,1,0,0,1,.8-.36,1,1,0,0,1,.8.33,1.48,1.48,0,0,1,.28,1V23.17a1.4,1.4,0,0,1-.3,1,1,1,0,0,1-.78.33,1,1,0,0,1-.78-.34A1.4,1.4,0,0,1,107.08,23.17Zm-4.5-3.36a3.89,3.89,0,0,0,.29,1.58,2.2,2.2,0,0,0,.79,1,2,2,0,0,0,1.1.33,2,2,0,0,0,1.1-.31,2.16,2.16,0,0,0,.8-1,3.89,3.89,0,0,0,.3-1.62,3.79,3.79,0,0,0-.3-1.57,2.37,2.37,0,0,0-.8-1,1.92,1.92,0,0,0-1.11-.35,1.88,1.88,0,0,0-1.12.36,2.29,2.29,0,0,0-.77,1A4.06,4.06,0,0,0,102.59,19.81Z"/><path class="cls-1" d="M116.5,23.53l-1.66-2.44-1.7,2.44a4.3,4.3,0,0,1-.62.73,1,1,0,0,1-.65.22,1.08,1.08,0,0,1-.74-.27.82.82,0,0,1-.31-.62,2.1,2.1,0,0,1,.47-1l2.07-3-1.83-2.47A1.84,1.84,0,0,1,111,16a.81.81,0,0,1,.29-.61,1.06,1.06,0,0,1,.75-.26,1,1,0,0,1,.67.23,4.19,4.19,0,0,1,.62.71l1.48,2,1.44-2a4,4,0,0,1,.62-.72,1,1,0,0,1,.66-.22,1.11,1.11,0,0,1,.75.26.79.79,0,0,1,.3.62,1.09,1.09,0,0,1-.12.5,3.76,3.76,0,0,1-.37.57l-1.83,2.47,2.07,3a2.19,2.19,0,0,1,.49,1,.79.79,0,0,1-.3.62,1.1,1.1,0,0,1-.75.26,1,1,0,0,1-.67-.23A3.87,3.87,0,0,1,116.5,23.53Z"/></g></g></svg>